<?xml version="1.0" encoding="utf-8"?>
<!-- Generator: Adobe Illustrator 21.0.0, SVG Export Plug-In . SVG Version: 6.00 Build 0)  -->
<svg version="1.1" id="Layer_1" xmlns="http://www.w3.org/2000/svg" xmlns:xlink="http://www.w3.org/1999/xlink" x="0px" y="0px"
	 viewBox="0 0 1280 800" style="enable-background:new 0 0 1280 800;" xml:space="preserve">
<style type="text/css">
	.st0{opacity:0.25;}
	.st1{fill:#FFFFFF;}
	.st2{opacity:0.1;}
	.st3{fill:none;stroke:#FFFFFF;stroke-miterlimit:10;}
	.st4{opacity:0.5;}
</style>
<g>
	<g>
		<rect x="755.8" y="209.2" width="299.4" height="300.4"/>
	</g>
	<g class="st0">
		<path class="st1" d="M1054.6,275.9v166.8h-298V275.9H1054.6 M1055.6,274.9h-300v168.8h300V274.9L1055.6,274.9z"/>
	</g>
	<g class="st2">
		<g>
			<path class="st1" d="M1004.6,210.3v298h-198v-298H1004.6 M1005.6,209.3h-200v300h200V209.3L1005.6,209.3z"/>
		</g>
		<g>
			<line class="st3" x1="805.6" y1="209.3" x2="1005.6" y2="509.3"/>
		</g>
		<line class="st3" x1="1005.4" y1="209.4" x2="805.4" y2="509.4"/>
	</g>
	<g>
		<g>
			<path class="st1" d="M1054.6,260.3v198h-298v-198H1054.6 M1055.6,259.3h-300v200h300V259.3L1055.6,259.3z"/>
		</g>
		<line class="st3" x1="755.4" y1="459.4" x2="1055.4" y2="259.4"/>
		<line class="st3" x1="755.4" y1="259.4" x2="1055.4" y2="459.4"/>
	</g>
	<g class="st0">
		<polygon class="st3" points="755.8,209.2 774.5,243.6 790.1,227.9 		"/>
		<polygon class="st3" points="1055.1,209.2 1020.8,227.9 1036.5,243.6 		"/>
		<polygon class="st3" points="755.8,509.6 790.1,490.9 774.5,475.3 		"/>
		<polygon class="st3" points="1055.1,509.6 1036.5,475.3 1020.8,490.9 		"/>
	</g>
	<g class="st4">
		<path class="st1" d="M890.3,230.3h-2v-15.4h-5.4v-1.8h12.8v1.8h-5.4V230.3z"/>
		<path class="st1" d="M913.2,221.7c0,2.7-0.7,4.9-2.1,6.5s-3.3,2.4-5.8,2.4c-2.5,0-4.5-0.8-5.8-2.3s-2.1-3.7-2.1-6.5
			c0-2.8,0.7-5,2.1-6.5s3.3-2.3,5.9-2.3c2.5,0,4.4,0.8,5.8,2.3S913.2,218.9,913.2,221.7z M899.6,221.7c0,2.3,0.5,4.1,1.5,5.3
			s2.4,1.8,4.3,1.8c1.9,0,3.3-0.6,4.3-1.8s1.5-3,1.5-5.3c0-2.3-0.5-4.1-1.4-5.2s-2.4-1.8-4.3-1.8c-1.9,0-3.3,0.6-4.3,1.8
			S899.6,219.4,899.6,221.7z"/>
		<path class="st1" d="M927.9,218.1c0,1.7-0.6,3.1-1.8,4s-2.9,1.4-5.1,1.4h-2v6.7h-2v-17.1h4.4C925.8,213.1,927.9,214.8,927.9,218.1
			z M919,221.8h1.8c1.8,0,3-0.3,3.8-0.9s1.2-1.5,1.2-2.7c0-1.1-0.4-2-1.1-2.5s-1.9-0.8-3.5-0.8H919V221.8z"/>
	</g>
	<g class="st4">
		<path class="st1" d="M898.3,503.3h-11.3v-1.7l4.5-4.5c1.4-1.4,2.3-2.4,2.7-3s0.8-1.2,1-1.7s0.3-1.2,0.3-1.8c0-0.9-0.3-1.6-0.8-2.2
			s-1.3-0.8-2.3-0.8c-0.7,0-1.4,0.1-2,0.4s-1.3,0.7-2.1,1.3l-1-1.3c1.6-1.3,3.3-2,5.2-2c1.6,0,2.9,0.4,3.8,1.2s1.4,1.9,1.4,3.3
			c0,1.1-0.3,2.2-0.9,3.2s-1.8,2.4-3.4,4l-3.8,3.7v0.1h8.8V503.3z"/>
		<path class="st1" d="M904.8,496.7l-4.5-6.3h2.2l3.4,4.9l3.4-4.9h2.2l-4.5,6.3l4.7,6.6h-2.2l-3.6-5.2l-3.6,5.2h-2.2L904.8,496.7z"
			/>
		<path class="st1" d="M924,490.2c0,1.1-0.3,2-0.9,2.7s-1.5,1.2-2.6,1.4v0.1c1.4,0.2,2.4,0.6,3.1,1.3s1,1.6,1,2.8
			c0,1.6-0.6,2.9-1.7,3.8s-2.7,1.3-4.8,1.3c-0.9,0-1.7-0.1-2.5-0.2s-1.5-0.4-2.2-0.7v-1.9c0.7,0.4,1.5,0.6,2.4,0.8s1.6,0.3,2.4,0.3
			c3,0,4.4-1.2,4.4-3.5c0-2.1-1.6-3.1-4.9-3.1h-1.7v-1.7h1.7c1.3,0,2.4-0.3,3.2-0.9s1.2-1.4,1.2-2.5c0-0.8-0.3-1.5-0.9-2
			s-1.4-0.7-2.3-0.7c-0.8,0-1.5,0.1-2.1,0.3s-1.4,0.6-2.3,1.1l-1-1.3c0.7-0.6,1.5-1,2.4-1.3s1.9-0.5,2.9-0.5c1.7,0,3,0.4,3.9,1.1
			S924,488.9,924,490.2z"/>
	</g>
</g>
<g>
	<g>
		<rect x="396.3" y="209.2" width="299.4" height="300.4"/>
	</g>
	<g class="st0">
		<path class="st1" d="M695.2,275.9v166.8h-298V275.9H695.2 M696.2,274.9h-300v168.8h300V274.9L696.2,274.9z"/>
	</g>
	<g>
		<g>
			<path class="st1" d="M645.2,210.3v298h-198v-298H645.2 M646.2,209.3h-200v300h200V209.3L646.2,209.3z"/>
		</g>
		<g>
			<line class="st3" x1="446.2" y1="209.3" x2="646.2" y2="509.3"/>
		</g>
		<line class="st3" x1="645.9" y1="209.4" x2="445.9" y2="509.4"/>
	</g>
	<g class="st2">
		<g>
			<path class="st1" d="M695.2,260.3v198h-298v-198H695.2 M696.2,259.3h-300v200h300V259.3L696.2,259.3z"/>
		</g>
		<line class="st3" x1="395.9" y1="459.4" x2="695.9" y2="259.4"/>
		<line class="st3" x1="395.9" y1="259.4" x2="695.9" y2="459.4"/>
	</g>
	<g class="st0">
		<polygon class="st3" points="396.3,209.2 415,243.6 430.7,227.9 		"/>
		<polygon class="st3" points="695.7,209.2 661.3,227.9 677,243.6 		"/>
		<polygon class="st3" points="396.3,509.6 430.7,490.9 415,475.3 		"/>
		<polygon class="st3" points="695.7,509.6 677,475.3 661.3,490.9 		"/>
	</g>
	<g class="st4">
		<path class="st1" d="M528.9,230.3h-2v-15.4h-5.4v-1.8h12.8v1.8h-5.4V230.3z"/>
		<path class="st1" d="M551.8,221.7c0,2.7-0.7,4.9-2.1,6.5s-3.3,2.4-5.8,2.4c-2.5,0-4.5-0.8-5.8-2.3s-2.1-3.7-2.1-6.5
			c0-2.8,0.7-5,2.1-6.5s3.3-2.3,5.9-2.3c2.5,0,4.4,0.8,5.8,2.3S551.8,218.9,551.8,221.7z M538.1,221.7c0,2.3,0.5,4.1,1.5,5.3
			s2.4,1.8,4.3,1.8c1.9,0,3.3-0.6,4.3-1.8s1.5-3,1.5-5.3c0-2.3-0.5-4.1-1.4-5.2s-2.4-1.8-4.3-1.8c-1.9,0-3.3,0.6-4.3,1.8
			S538.1,219.4,538.1,221.7z"/>
		<path class="st1" d="M566.4,218.1c0,1.7-0.6,3.1-1.8,4s-2.9,1.4-5.1,1.4h-2v6.7h-2v-17.1h4.4C564.3,213.1,566.4,214.8,566.4,218.1
			z M557.6,221.8h1.8c1.8,0,3-0.3,3.8-0.9s1.2-1.5,1.2-2.7c0-1.1-0.4-2-1.1-2.5s-1.9-0.8-3.5-0.8h-2.2V221.8z"/>
	</g>
	<g class="st4">
		<path class="st1" d="M536.9,503.3h-11.3v-1.7l4.5-4.5c1.4-1.4,2.3-2.4,2.7-3s0.8-1.2,1-1.7s0.3-1.2,0.3-1.8c0-0.9-0.3-1.6-0.8-2.2
			s-1.3-0.8-2.3-0.8c-0.7,0-1.4,0.1-2,0.4s-1.3,0.7-2.1,1.3l-1-1.3c1.6-1.3,3.3-2,5.2-2c1.6,0,2.9,0.4,3.8,1.2s1.4,1.9,1.4,3.3
			c0,1.1-0.3,2.2-0.9,3.2s-1.8,2.4-3.4,4l-3.8,3.7v0.1h8.8V503.3z"/>
		<path class="st1" d="M543.3,496.7l-4.5-6.3h2.2l3.4,4.9l3.4-4.9h2.2l-4.5,6.3l4.7,6.6h-2.2l-3.6-5.2l-3.6,5.2h-2.2L543.3,496.7z"
			/>
		<path class="st1" d="M562.5,490.2c0,1.1-0.3,2-0.9,2.7s-1.5,1.2-2.6,1.4v0.1c1.4,0.2,2.4,0.6,3.1,1.3s1,1.6,1,2.8
			c0,1.6-0.6,2.9-1.7,3.8s-2.7,1.3-4.8,1.3c-0.9,0-1.7-0.1-2.5-0.2s-1.5-0.4-2.2-0.7v-1.9c0.7,0.4,1.5,0.6,2.4,0.8s1.6,0.3,2.4,0.3
			c3,0,4.4-1.2,4.4-3.5c0-2.1-1.6-3.1-4.9-3.1h-1.7v-1.7h1.7c1.3,0,2.4-0.3,3.2-0.9s1.2-1.4,1.2-2.5c0-0.8-0.3-1.5-0.9-2
			s-1.4-0.7-2.3-0.7c-0.8,0-1.5,0.1-2.1,0.3s-1.4,0.6-2.3,1.1l-1-1.3c0.7-0.6,1.5-1,2.4-1.3s1.9-0.5,2.9-0.5c1.7,0,3,0.4,3.9,1.1
			S562.5,488.9,562.5,490.2z"/>
	</g>
</g>
<g>
	<g>
		<rect x="36.9" y="209.2" width="299.4" height="300.4"/>
	</g>
	<g>
		<path class="st1" d="M335.7,275.9v166.8h-298V275.9H335.7 M336.7,274.9h-300v168.8h300V274.9L336.7,274.9z"/>
	</g>
	<g class="st0">
		<g>
			<path class="st1" d="M285.7,210.3v298h-198v-298H285.7 M286.7,209.3h-200v300h200V209.3L286.7,209.3z"/>
		</g>
		<g>
			<line class="st3" x1="86.7" y1="209.3" x2="286.7" y2="509.3"/>
		</g>
		<line class="st3" x1="286.5" y1="209.4" x2="86.5" y2="509.4"/>
	</g>
	<g class="st2">
		<g>
			<path class="st1" d="M335.7,260.3v198h-298v-198H335.7 M336.7,259.3h-300v200h300V259.3L336.7,259.3z"/>
		</g>
		<line class="st3" x1="36.5" y1="459.4" x2="336.5" y2="259.4"/>
		<line class="st3" x1="36.5" y1="259.4" x2="336.5" y2="459.4"/>
	</g>
	<g class="st0">
		<polygon class="st3" points="36.9,209.2 55.5,243.6 71.2,227.9 		"/>
		<polygon class="st3" points="336.2,209.2 301.9,227.9 317.5,243.6 		"/>
		<polygon class="st3" points="36.9,509.6 71.2,490.9 55.5,475.3 		"/>
		<polygon class="st3" points="336.2,509.6 317.5,475.3 301.9,490.9 		"/>
	</g>
	<g class="st4">
		<path class="st1" d="M169.7,230.3h-2v-15.4h-5.4v-1.8h12.8v1.8h-5.4V230.3z"/>
		<path class="st1" d="M192.6,221.7c0,2.7-0.7,4.9-2.1,6.5s-3.3,2.4-5.8,2.4c-2.5,0-4.5-0.8-5.8-2.3s-2.1-3.7-2.1-6.5
			c0-2.8,0.7-5,2.1-6.5s3.3-2.3,5.9-2.3c2.5,0,4.4,0.8,5.8,2.3S192.6,218.9,192.6,221.7z M178.9,221.7c0,2.3,0.5,4.1,1.5,5.3
			s2.4,1.8,4.3,1.8c1.9,0,3.3-0.6,4.3-1.8s1.5-3,1.5-5.3c0-2.3-0.5-4.1-1.4-5.2s-2.4-1.8-4.3-1.8c-1.9,0-3.3,0.6-4.3,1.8
			S178.9,219.4,178.9,221.7z"/>
		<path class="st1" d="M207.3,218.1c0,1.7-0.6,3.1-1.8,4s-2.9,1.4-5.1,1.4h-2v6.7h-2v-17.1h4.4C205.1,213.1,207.3,214.8,207.3,218.1
			z M198.4,221.8h1.8c1.8,0,3-0.3,3.8-0.9s1.2-1.5,1.2-2.7c0-1.1-0.4-2-1.1-2.5s-1.9-0.8-3.5-0.8h-2.2V221.8z"/>
	</g>
	<line class="st3" x1="36.7" y1="274.9" x2="336.7" y2="443.6"/>
	<line class="st3" x1="36.7" y1="443.6" x2="336.7" y2="274.9"/>
	<g class="st4">
		<path class="st1" d="M166.8,503.3h-1.9v-12.2c0-1,0-2,0.1-2.9c-0.2,0.2-0.3,0.3-0.6,0.5s-1.1,0.9-2.8,2.3l-1-1.3l4.5-3.5h1.6
			V503.3z"/>
		<path class="st1" d="M173.5,496c0-3.4,0.7-5.9,2-7.6s3.2-2.5,5.8-2.5c0.9,0,1.6,0.1,2.1,0.2v1.7c-0.6-0.2-1.3-0.3-2.1-0.3
			c-1.8,0-3.2,0.6-4.2,1.7s-1.5,2.9-1.6,5.4h0.1c0.9-1.3,2.2-2,4.1-2c1.5,0,2.8,0.5,3.6,1.4s1.3,2.2,1.3,3.8c0,1.8-0.5,3.2-1.5,4.2
			s-2.3,1.5-3.9,1.5c-1.8,0-3.2-0.7-4.2-2S173.5,498.4,173.5,496z M179.3,501.9c1.1,0,2-0.3,2.6-1s0.9-1.7,0.9-3
			c0-1.1-0.3-2-0.9-2.7s-1.4-1-2.6-1c-0.7,0-1.3,0.1-1.9,0.4s-1.1,0.7-1.4,1.2s-0.5,1-0.5,1.6c0,0.8,0.2,1.6,0.5,2.3
			s0.8,1.2,1.3,1.7S178.5,501.9,179.3,501.9z"/>
		<path class="st1" d="M191,496.7l-4.5-6.3h2.2l3.4,4.9l3.4-4.9h2.2l-4.5,6.3l4.7,6.6h-2.2l-3.6-5.2l-3.6,5.2h-2.2L191,496.7z"/>
		<path class="st1" d="M210.9,493.5c0,6.7-2.6,10.1-7.8,10.1c-0.9,0-1.6-0.1-2.2-0.2v-1.7c0.6,0.2,1.3,0.3,2.1,0.3
			c1.9,0,3.3-0.6,4.2-1.7s1.5-2.9,1.6-5.3h-0.1c-0.4,0.6-1,1.1-1.7,1.5s-1.5,0.5-2.4,0.5c-1.5,0-2.7-0.5-3.6-1.4s-1.3-2.2-1.3-3.8
			c0-1.8,0.5-3.2,1.5-4.2s2.3-1.5,3.9-1.5c1.2,0,2.2,0.3,3.1,0.9s1.5,1.5,2,2.6S210.9,491.9,210.9,493.5z M205.1,487.6
			c-1.1,0-2,0.4-2.6,1.1s-0.9,1.7-0.9,3c0,1.1,0.3,2,0.8,2.7s1.4,1,2.6,1c0.7,0,1.4-0.1,2-0.4s1.1-0.7,1.4-1.2s0.5-1,0.5-1.6
			c0-0.8-0.2-1.6-0.5-2.3s-0.8-1.2-1.3-1.6S205.8,487.6,205.1,487.6z"/>
	</g>
</g>
<g>
</g>
<g>
</g>
<g>
</g>
<g>
</g>
<g>
</g>
<g>
</g>
<g>
</g>
<g>
</g>
<g>
</g>
<g>
</g>
<g>
</g>
<g>
</g>
<g>
</g>
<g>
</g>
<g>
</g>
</svg>
